<svg width="1572" height="220" viewBox="0 0 1572 220" fill="none" xmlns="http://www.w3.org/2000/svg">
<g filter="url(#filter0_i_2646_1803)">
<path d="M1572 148.86L1249.14 148.86C1183.84 148.86 1132.43 162.637 1074.94 178.045C1004.25 196.993 924.345 218.407 798.081 219.699C794.651 219.739 791.192 219.76 787.703 219.76C787.419 219.76 787.135 219.76 786.851 219.76C786.568 219.76 786.284 219.76 786 219.76C782.511 219.76 779.051 219.739 775.622 219.699C649.358 218.407 569.457 196.993 498.759 178.044C441.271 162.637 389.867 148.86 324.568 148.86L6.19831e-06 148.86L1.91339e-05 0.893585L1572 0.893723L1572 148.86Z" fill="#F0F7F4"/>
</g>
<defs>
<filter id="filter0_i_2646_1803" x="0" y="-12.1064" width="1572" height="231.866" filterUnits="userSpaceOnUse" color-interpolation-filters="sRGB">
<feFlood flood-opacity="0" result="BackgroundImageFix"/>
<feBlend mode="normal" in="SourceGraphic" in2="BackgroundImageFix" result="shape"/>
<feColorMatrix in="SourceAlpha" type="matrix" values="0 0 0 0 0 0 0 0 0 0 0 0 0 0 0 0 0 0 127 0" result="hardAlpha"/>
<feOffset dy="-13"/>
<feGaussianBlur stdDeviation="10"/>
<feComposite in2="hardAlpha" operator="arithmetic" k2="-1" k3="1"/>
<feColorMatrix type="matrix" values="0 0 0 0 0.818678 0 0 0 0 0.912165 0 0 0 0 0.872099 0 0 0 0.5 0"/>
<feBlend mode="normal" in2="shape" result="effect1_innerShadow_2646_1803"/>
</filter>
</defs>
</svg>
