<svg xmlns="http://www.w3.org/2000/svg" width="17" height="23" viewBox="0 0 17 23" fill="none">
  <mask id="path-1-inside-1_1833_5324" fill="white">
    <path d="M8.66211 0.0107422C8.66211 0.0107422 7.38452 4.24175 5.79231 6.51703C4.36433 8.55763 0.462695 11.0267 0.462695 11.0267C0.462695 11.0267 4.37844 13.2118 5.79231 15.1264C7.52941 17.4788 8.66211 22.0426 8.66211 22.0426C8.66211 22.0426 9.90727 17.5578 11.5319 15.1264C12.7286 13.3355 16.8615 11.0267 16.8615 11.0267C16.8615 11.0267 12.7485 8.44001 11.5319 6.51703C10.0472 4.17018 8.66211 0.0107422 8.66211 0.0107422Z"/>
  </mask>
  <path d="M8.66211 0.0107422L6.74749 -0.567394L8.5689 -6.59938L10.5597 -0.621147L8.66211 0.0107422ZM0.462695 11.0267L-0.511879 12.7732L-3.44809 11.1347L-0.606795 9.33665L0.462695 11.0267ZM8.66211 22.0426L10.5892 22.5777L8.55377 29.9089L6.721 22.5244L8.66211 22.0426ZM16.8615 11.0267L17.9263 9.33365L20.7802 11.1285L17.8369 12.7727L16.8615 11.0267ZM5.79231 6.51703L4.15368 5.37034L5.79231 6.51703ZM11.5319 6.51703L9.84173 7.58629L11.5319 6.51703ZM11.5319 15.1264L9.86897 14.0153L11.5319 15.1264ZM5.79231 15.1264L4.18343 16.3145L5.79231 15.1264ZM8.66211 0.0107422C10.5767 0.588878 10.5767 0.589078 10.5766 0.589294C10.5766 0.589387 10.5765 0.58962 10.5764 0.589807C10.5763 0.590181 10.5762 0.590621 10.576 0.591124C10.5757 0.592132 10.5754 0.593397 10.5749 0.594918C10.574 0.597959 10.5727 0.602021 10.5712 0.607079C10.5681 0.617195 10.5638 0.631301 10.5582 0.649206C10.5472 0.685012 10.5313 0.736047 10.5108 0.800785C10.4698 0.9302 10.4103 1.11474 10.3342 1.34215C10.1823 1.79601 9.96256 2.42552 9.68995 3.13129C9.16153 4.49933 8.37356 6.3167 7.43094 7.66371L4.15368 5.37034C4.80327 4.44207 5.4502 3.0063 5.95863 1.69002C6.20444 1.05363 6.4036 0.483185 6.54101 0.0726306C6.60955 -0.132171 6.66232 -0.295955 6.69742 -0.406811C6.71497 -0.462208 6.72807 -0.504296 6.7365 -0.531579C6.74071 -0.545217 6.74376 -0.555147 6.7456 -0.561181C6.74652 -0.564198 6.74714 -0.56624 6.74746 -0.567283C6.74762 -0.567805 6.7477 -0.568077 6.7477 -0.568096C6.74771 -0.568106 6.74769 -0.568053 6.74766 -0.567936C6.74764 -0.567877 6.7476 -0.567742 6.74759 -0.567713C6.74754 -0.567561 6.74749 -0.567394 8.66211 0.0107422ZM7.43094 7.66371C6.51939 8.96634 4.95693 10.2564 3.79812 11.1325C3.18741 11.5942 2.62619 11.9867 2.21767 12.2639C2.01285 12.4029 1.845 12.5139 1.72677 12.5911C1.66762 12.6297 1.62079 12.66 1.58786 12.6811C1.57139 12.6917 1.55838 12.7 1.54904 12.706C1.54437 12.709 1.54061 12.7114 1.5378 12.7131C1.53639 12.714 1.53521 12.7148 1.53428 12.7154C1.53381 12.7157 1.5334 12.7159 1.53305 12.7162C1.53288 12.7163 1.53266 12.7164 1.53257 12.7165C1.53237 12.7166 1.53219 12.7167 0.462695 11.0267C-0.606795 9.33665 -0.606952 9.33675 -0.607094 9.33684C-0.607122 9.33686 -0.60725 9.33694 -0.607306 9.33698C-0.607417 9.33705 -0.60747 9.33708 -0.607465 9.33708C-0.607454 9.33707 -0.607212 9.33692 -0.60674 9.33662C-0.605795 9.33602 -0.603934 9.33483 -0.601179 9.33308C-0.595669 9.32957 -0.58659 9.32376 -0.574134 9.31576C-0.549216 9.29975 -0.510826 9.27497 -0.4605 9.2421C-0.359781 9.17632 -0.211666 9.07844 -0.0283953 8.95408C0.339266 8.70458 0.842709 8.35233 1.38591 7.94167C2.53491 7.07304 3.63726 6.10832 4.15368 5.37034L7.43094 7.66371ZM16.8615 11.0267C15.7968 12.7197 15.7966 12.7196 15.7964 12.7195C15.7963 12.7194 15.7961 12.7193 15.7959 12.7192C15.7956 12.719 15.7952 12.7187 15.7947 12.7184C15.7938 12.7178 15.7926 12.717 15.7911 12.7161C15.7882 12.7143 15.7843 12.7118 15.7795 12.7088C15.7698 12.7026 15.7563 12.6941 15.7391 12.6831C15.7048 12.6612 15.6559 12.6298 15.5941 12.5898C15.4707 12.5097 15.2955 12.3947 15.0825 12.2512C14.6578 11.9651 14.0762 11.5614 13.4514 11.0918C12.2919 10.2204 10.6709 8.8969 9.84173 7.58629L13.2221 5.44777C13.6095 6.06014 14.6533 6.99144 15.8545 7.89414C16.41 8.31162 16.9327 8.67469 17.3172 8.9337C17.5088 9.06276 17.6645 9.16489 17.7707 9.2338C17.8238 9.26824 17.8645 9.29431 17.891 9.31123C17.9042 9.31968 17.9139 9.32585 17.9199 9.32962C17.9229 9.33151 17.9249 9.33279 17.926 9.33347C17.9265 9.33381 17.9268 9.33399 17.9268 9.33402C17.9269 9.33404 17.9268 9.33401 17.9267 9.33395C17.9267 9.33392 17.9266 9.33384 17.9265 9.33383C17.9264 9.33374 17.9263 9.33365 16.8615 11.0267ZM9.84173 7.58629C8.99553 6.2487 8.22259 4.47846 7.68261 3.12489C7.4061 2.43176 7.17822 1.81593 7.01921 1.37269C6.93958 1.15072 6.87688 0.971111 6.83365 0.845664C6.81203 0.782919 6.79525 0.733654 6.78364 0.699341C6.77783 0.682182 6.77331 0.668756 6.77011 0.659245C6.76852 0.654489 6.76725 0.650711 6.76632 0.647935C6.76586 0.646547 6.76548 0.645409 6.76519 0.644524C6.76504 0.644081 6.76491 0.643702 6.76481 0.643387C6.76475 0.643229 6.76469 0.64304 6.76466 0.642961C6.76461 0.642788 6.76455 0.642631 8.66211 0.0107422C10.5597 -0.621147 10.5596 -0.621272 10.5596 -0.621382C10.5596 -0.621397 10.5595 -0.621491 10.5595 -0.621522C10.5595 -0.621585 10.5595 -0.621584 10.5595 -0.621522C10.5596 -0.621397 10.5597 -0.621023 10.5599 -0.620403C10.5603 -0.619163 10.5611 -0.616939 10.5621 -0.613753C10.5643 -0.607381 10.5677 -0.597165 10.5724 -0.583286C10.5818 -0.555524 10.5962 -0.513133 10.6154 -0.457561C10.6537 -0.34637 10.7108 -0.182685 10.7842 0.0219582C10.9313 0.431954 11.1425 1.00266 11.3979 1.64275C11.9216 2.9556 12.5836 4.43851 13.2221 5.44777L9.84173 7.58629ZM8.66211 22.0426C6.73501 21.5076 6.73506 21.5074 6.73512 21.5072C6.73515 21.5071 6.73521 21.5068 6.73527 21.5066C6.73538 21.5062 6.7355 21.5058 6.73565 21.5053C6.73594 21.5042 6.7363 21.5029 6.73675 21.5013C6.73763 21.4982 6.73882 21.4939 6.74032 21.4886C6.7433 21.478 6.74749 21.4631 6.75286 21.4442C6.7636 21.4065 6.77907 21.3526 6.79906 21.2842C6.83902 21.1475 6.89714 20.9523 6.97174 20.7117C7.12064 20.2314 7.33671 19.5649 7.60655 18.8173C8.13036 17.366 8.91426 15.4441 9.86897 14.0153L13.1948 16.2376C12.5249 17.2402 11.8739 18.7763 11.369 20.1753C11.1245 20.8528 10.9277 21.4595 10.7924 21.8961C10.7248 22.1139 10.673 22.2881 10.6385 22.4061C10.6213 22.4651 10.6084 22.5099 10.6001 22.5391C10.596 22.5536 10.593 22.5643 10.5911 22.5708C10.5902 22.574 10.5896 22.5762 10.5893 22.5774C10.5891 22.578 10.589 22.5783 10.589 22.5783C10.589 22.5784 10.589 22.5783 10.5891 22.5782C10.5891 22.5781 10.5891 22.578 10.5891 22.578C10.5892 22.5778 10.5892 22.5777 8.66211 22.0426ZM9.86897 14.0153C10.3245 13.3336 10.9764 12.7101 11.5808 12.2009C12.2086 11.6718 12.899 11.1722 13.524 10.749C14.1527 10.3232 14.7383 9.95909 15.1658 9.70179C15.3803 9.57271 15.5568 9.46944 15.6812 9.39755C15.7435 9.36158 15.7929 9.33339 15.8276 9.31369C15.8449 9.30384 15.8586 9.29611 15.8685 9.29057C15.8734 9.2878 15.8773 9.28559 15.8803 9.28393C15.8818 9.2831 15.883 9.28241 15.884 9.28186C15.8845 9.28159 15.8849 9.28135 15.8852 9.28115C15.8854 9.28105 15.8856 9.28092 15.8857 9.28087C15.8859 9.28076 15.8861 9.28065 16.8615 11.0267C17.8369 12.7727 17.8371 12.7726 17.8372 12.7725C17.8372 12.7725 17.8374 12.7725 17.8374 12.7724C17.8375 12.7724 17.8376 12.7723 17.8376 12.7723C17.8376 12.7724 17.8373 12.7725 17.8368 12.7728C17.8357 12.7734 17.8337 12.7745 17.8308 12.7761C17.8249 12.7795 17.8153 12.7849 17.8021 12.7924C17.7756 12.8074 17.735 12.8306 17.682 12.8612C17.5757 12.9226 17.42 13.0137 17.2283 13.129C16.8435 13.3606 16.3211 13.6856 15.767 14.0609C15.2091 14.4387 14.6419 14.8521 14.1583 15.2597C13.6511 15.687 13.3377 16.0238 13.1948 16.2376L9.86897 14.0153ZM0.462695 11.0267C1.43727 9.2802 1.43747 9.28031 1.43769 9.28043C1.43778 9.28048 1.43801 9.28061 1.4382 9.28072C1.43857 9.28092 1.439 9.28116 1.43949 9.28144C1.44047 9.28198 1.44169 9.28266 1.44314 9.28348C1.44605 9.28511 1.4499 9.28727 1.45467 9.28995C1.46421 9.29532 1.47743 9.30278 1.49412 9.31226C1.52752 9.33121 1.57487 9.35825 1.63461 9.39277C1.75399 9.46179 1.92327 9.56096 2.12966 9.68546C2.54118 9.9337 3.10661 10.2864 3.72167 10.7045C4.87993 11.4919 6.47227 12.6804 7.40119 13.9383L4.18343 16.3145C3.69848 15.6578 2.62602 14.7964 1.47293 14.0126C0.932326 13.6451 0.430449 13.3319 0.0635867 13.1106C-0.119215 13.0003 -0.266905 12.9138 -0.367183 12.8558C-0.417284 12.8269 -0.455436 12.8051 -0.480092 12.7911C-0.492418 12.7841 -0.501359 12.7791 -0.506725 12.7761C-0.509407 12.7746 -0.511194 12.7735 -0.512061 12.7731C-0.512495 12.7728 -0.512699 12.7727 -0.51267 12.7727C-0.512655 12.7727 -0.512582 12.7728 -0.51245 12.7728C-0.512385 12.7729 -0.512242 12.773 -0.512209 12.773C-0.512052 12.7731 -0.511879 12.7732 0.462695 11.0267ZM7.40119 13.9383C8.45904 15.3709 9.25601 17.3422 9.76713 18.8082C10.0324 19.5689 10.2394 20.2497 10.3804 20.7411C10.4511 20.9874 10.5056 21.1877 10.543 21.3285C10.5617 21.399 10.5762 21.4547 10.5863 21.4939C10.5913 21.5136 10.5952 21.5291 10.5981 21.5403C10.5995 21.5459 10.6006 21.5505 10.6015 21.5539C10.6019 21.5556 10.6023 21.557 10.6026 21.5582C10.6027 21.5588 10.6028 21.5593 10.6029 21.5597C10.603 21.56 10.6031 21.5602 10.6031 21.5603C10.6032 21.5606 10.6032 21.5609 8.66211 22.0426C6.721 22.5244 6.72105 22.5246 6.7211 22.5248C6.72111 22.5248 6.72115 22.525 6.72117 22.5251C6.72121 22.5252 6.72124 22.5253 6.72125 22.5254C6.72126 22.5254 6.72121 22.5252 6.72108 22.5247C6.72084 22.5237 6.72033 22.5217 6.71955 22.5186C6.71798 22.5124 6.71535 22.502 6.71167 22.4877C6.70429 22.4589 6.69271 22.4142 6.67706 22.3553C6.64574 22.2374 6.59823 22.0628 6.53558 21.8444C6.40993 21.4066 6.2252 20.7994 5.99011 20.1251C5.50061 18.7211 4.86268 17.2343 4.18343 16.3145L7.40119 13.9383Z" fill="white" mask="url(#path-1-inside-1_1833_5324)"/>
</svg>