<svg width="249" height="317" viewBox="0 0 249 317" fill="white" xmlns="http://www.w3.org/2000/svg">
<path d="M160.601 291.66C141.494 297.094 129.207 306.868 124.628 315.074C122.538 311.116 118.617 306.869 113.009 302.919C106.846 298.577 98.6045 294.563 88.3981 291.66C82.541 289.994 76.3536 288.638 70.1004 287.268L70.0909 287.266C49.1037 282.666 27.4059 277.883 13.5146 260.805C1.96117 246.601 0.824219 229.377 0.824219 219.554V97.0386C0.824219 87.2155 1.96117 69.9921 13.5146 55.7881C27.4059 38.7098 49.1037 33.9266 70.091 29.3273L70.1036 29.3246C76.3559 27.9544 82.5418 26.5988 88.3981 24.9331C98.6053 22.03 106.847 17.9976 113.01 13.638C118.505 9.75118 122.379 5.58059 124.499 1.68873C126.619 5.58059 130.494 9.75118 135.989 13.638C142.152 17.9976 150.393 22.03 160.601 24.9331C166.457 26.5988 172.643 27.9544 178.895 29.3246L178.908 29.3274C199.895 33.9267 221.593 38.7098 235.484 55.7881C247.037 69.9921 248.174 87.2155 248.174 97.0386V219.554C248.174 229.377 247.037 246.601 235.484 260.805C221.593 277.883 199.895 282.666 178.908 287.266L178.897 287.268C172.644 288.638 166.457 289.994 160.601 291.66Z" stroke="url(#paint0_linear_1990_17195)" stroke-width="1.5"/>
<defs>
<linearGradient id="paint0_linear_1990_17195" x1="124.499" y1="9.44734e-06" x2="282.951" y2="162.421" gradientUnits="userSpaceOnUse">
<stop stop-color="#9E7C3D"/>
<stop offset="1" stop-color="#D0AC6C"/>
</linearGradient>
</defs>
</svg>
