<svg xmlns="http://www.w3.org/2000/svg" width="244" height="509" fill="none"><path fill="#A9804E" fill-rule="evenodd" d="M227.071 14.045c-14.648 15.658-21.304 25.338-25.613 37.248-4.715 13.031-5.675 19.58-5.119 34.945.427 11.81.93 14.927 3.777 23.396 5.475 16.29 10.843 24.127 28.394 41.457l15.427 15.232 11.111-11.632c6.112-6.398 13.22-14.41 15.795-17.804 22.607-29.786 23.537-71.019 2.315-102.513C269.389 28.781 241.973.68 240.241.634c-.335-.008-6.262 6.026-13.17 13.41m146.791 63.659c-13.545 2.487-27.482 8.591-38.451 16.837-15.692 11.797-26.987 28.765-32.385 48.647-1.759 6.482-2.309 12.15-2.759 28.41l-.561 20.311h21.157c27.883 0 40.075-2.621 55.349-11.9 19.204-11.665 34.798-32.232 40.494-53.406 1.691-6.288 4.477-47.3 3.293-48.483-1.015-1.014-40.92-1.374-46.137-.416m-295.505.744-9.256.401.278 9.992c.75 26.973 2.923 39.617 9.039 52.583 8.852 18.767 23.95 33.84 42.883 42.809 14.64 6.936 21.143 8.045 45.977 7.837 12.688-.106 22.498-.61 23.074-1.186 1.469-1.469-.908-39.223-2.942-46.735-4.264-15.738-10.145-26.213-21.478-38.256-12.025-12.777-24.357-20.305-41.295-25.208-7.542-2.183-26.434-3.096-46.28-2.237M241.4 103.645c-2.601 4.264-3.536 9.019-2.82 14.355.635 4.737 5.416 12.606 7.046 11.598 2.2-1.36 4.952-9.296 4.973-14.347.024-5.35-3.394-13.885-5.86-14.64-.69-.212-2.192 1.154-3.339 3.034m-103.268 44.812c2.255 9.404 11.038 16.713 20.083 16.713 3.432 0 3.588-1.058.982-6.685-3.39-7.323-11.398-12.856-18.605-12.856-2.903 0-3.088.213-2.46 2.828m198.365-.093c-6.744 3.549-11.827 10.315-11.827 15.744 0 1.626.67 2.09 3.019 2.09 8.604 0 18.578-9.369 18.578-17.451 0-1.68-.654-2.081-3.342-2.048-1.839.022-4.731.772-6.428 1.665M68.073 203.372c-7.005 1.293-17.445 4.749-23.654 7.829-8.957 4.444-17.095 11.007-30.854 24.882L.195 249.566l13.37 12.824c15.364 14.736 25.306 21.81 36.974 26.311 11.322 4.365 19.923 6.014 31.486 6.035 11.48.021 19.056-1.168 29.802-4.676 13.645-4.455 22.46-10.518 39.287-27.022l15.257-14.964-11.097-11.182c-20.862-21.026-35.847-29.816-57.308-33.617-7.247-1.284-22.682-1.233-29.893.097m323.446 1.254c-14.226 3.315-25.522 8.483-35.923 16.437-6.144 4.698-31.136 31.409-30.677 32.787.73 2.188 28.113 25.424 34.373 29.165 32.109 19.195 72.365 16.623 100.666-6.431 5.612-4.571 29.264-29.868 29.264-31.299 0-1.771-28.922-26.233-35.725-30.214-4.143-2.426-12.031-5.925-17.529-7.774-9.082-3.057-11.312-3.392-24.394-3.676-9.172-.198-16.452.166-20.055 1.005m-20.608 42.048c-2.524 1.273-4.589 2.994-4.589 3.824 0 2.717 7.707 6.168 13.816 6.187 6.681.02 14.747-3.382 14.262-6.014-.479-2.601-8.822-6.311-14.194-6.311-2.835 0-6.53.919-9.295 2.314m-267.344 2.057c-2.497 1.273-4.7 2.845-4.897 3.494s1.148 2.252 2.99 3.564c4.964 3.535 14.634 3.956 20.922.911 3.168-1.533 4.63-2.846 4.422-3.972-.479-2.601-8.822-6.311-14.194-6.311-2.851 0-6.495.912-9.243 2.314m113.021 14.477c-6.78 3.579-10.513 9.523-11.024 17.55-.293 4.596.074 7.564 1.239 10.019.91 1.918 9.522 11.345 19.137 20.947l17.483 17.46 17.041-16.958c9.373-9.327 17.984-18.771 19.135-20.987 3.115-5.993 2.325-15.511-1.77-21.325-4.596-6.524-10.674-9.344-19.168-8.891-5.963.318-7.437.82-11.13 3.788l-4.258 3.421-2.239-2.045c-6.467-5.909-16.566-7.139-24.446-2.979m-65.194 39.883c-20.161 2.122-38.522 11.211-53.098 26.282-10.443 10.798-17.114 21.903-21.291 35.447-3.438 11.144-4.329 20.994-3.613 39.946l.661 17.515h12.07c15.972 0 31.306-1.645 39.823-4.272 24.726-7.628 45.704-26.727 55.683-50.699 5.901-14.175 6.961-22.545 6.49-51.216l-.232-14.141-14.141.137c-7.777.075-17.836.525-22.352 1.001m147.856 22.673c.452 16.444 1.042 22.799 2.754 29.668 8.369 33.562 36.212 59.3 70.641 65.305 5.61.978 15.467 1.544 26.875 1.544h18.018l-.618-20.826c-.733-24.659-2.5-33.518-9.492-47.565-8.76-17.599-22.351-31.04-40.077-39.635-15.985-7.749-19.262-8.391-45.651-8.94l-23.024-.479zm20.278 5.533c0 3.711 2.731 9.758 5.968 13.209 2.699 2.878 9.695 6.745 12.287 6.79 1.594.028 1.71-5.917.194-9.938-2.297-6.095-10.785-12.665-16.359-12.665-1.551 0-2.09.671-2.09 2.604M149.32 338.63c-6.815 3.592-11.755 10.765-11.804 17.141-.022 2.744.168 2.87 3.319 2.213 8.87-1.848 15.86-8.851 16.95-16.979.53-3.949.45-4.084-2.416-4.044-1.63.023-4.352.774-6.049 1.669m69.637 51.335c-13.598 27.192-25.297 51.487-25.999 53.99s-1.291 8.254-1.309 12.779c-.093 22.768 13.455 41.816 35.203 49.492 9.037 3.191 22.678 3.351 32.301.379 27.236-8.413 42.957-39.304 33.679-66.181-1.004-2.907-12.474-26.574-25.488-52.592l-23.664-47.304z" clip-rule="evenodd" opacity=".04"/></svg>