<svg xmlns="http://www.w3.org/2000/svg" width="26" height="26" fill="none"><path fill="#ffffff90" d="M11.284 1.228c-.482.231-.923.608-1.54 1.134l-.096.081a3.13 3.13 0 0 1-1.931.8l-.125.01c-.809.065-1.387.11-1.89.288a4.07 4.07 0 0 0-2.48 2.48c-.178.503-.223 1.081-.288 1.89l-.01.125a3.13 3.13 0 0 1-.8 1.93l-.08.096c-.527.618-.905 1.059-1.134 1.54a4.07 4.07 0 0 0 0 3.507c.23.482.607.923 1.134 1.54l.08.096c.501.587.738 1.148.8 1.931l.01.125c.065.809.11 1.387.289 1.89a4.07 4.07 0 0 0 2.479 2.48c.503.178 1.081.223 1.89.288l.125.01c.769.06 1.332.29 1.93.8l.097.08c.617.527 1.058.905 1.54 1.134a4.07 4.07 0 0 0 3.507 0c.481-.23.922-.607 1.54-1.134l.096-.08c.586-.501 1.147-.738 1.93-.8l.125-.01c.809-.065 1.387-.11 1.89-.289a4.07 4.07 0 0 0 2.48-2.479c.178-.503.223-1.081.288-1.89l.01-.125c.06-.768.29-1.332.8-1.93l.08-.097c.527-.617.905-1.058 1.135-1.54a4.07 4.07 0 0 0 0-3.507c-.231-.481-.608-.922-1.134-1.54l-.08-.096a3.13 3.13 0 0 1-.801-1.93l-.01-.125c-.065-.809-.11-1.387-.288-1.89a4.07 4.07 0 0 0-2.48-2.48c-.503-.178-1.081-.223-1.89-.288l-.125-.01a3.13 3.13 0 0 1-1.93-.8l-.097-.08c-.617-.527-1.058-.905-1.54-1.135a4.07 4.07 0 0 0-3.506 0m-2.829 6.63a.916.916 0 0 1 .916-.917h7.332a.916.916 0 1 1 0 1.833H14.51c.29.48.482 1.014.581 1.561h1.61a.916.916 0 0 1 0 1.833h-1.61a4.46 4.46 0 0 1-.88 1.99 3.7 3.7 0 0 1-2.706 1.394l3.72 3.892a.916.916 0 0 1-1.324 1.265L8.71 15.28a.916.916 0 0 1 .662-1.55h1.833c.733 0 1.237-.292 1.577-.716.197-.251.343-.538.43-.845H9.37a.917.917 0 0 1 0-1.833h3.84a2.4 2.4 0 0 0-.43-.844c-.34-.424-.844-.717-1.577-.717H9.371a.916.916 0 0 1-.916-.917"/></svg>