<svg xmlns="http://www.w3.org/2000/svg" fill="none" viewBox="0 0 743 732"><path fill="#B38E4B" d="M340 144c-9 5-17 12-29 21l-1 2c-10 8-23 14-36 14h-2c-15 2-25 2-34 6a74 74 0 0 0-46 45c-3 9-4 20-5 35v2c-1 13-6 25-15 35l-1 2c-10 11-17 19-21 28a74 74 0 0 0 0 64c4 9 11 17 21 28l1 2c9 11 14 21 15 35v3c1 14 2 25 5 34a74 74 0 0 0 46 45c9 4 19 5 34 6h2c14 1 25 5 36 15l1 1c12 10 20 17 29 21a74 74 0 0 0 64 0l28-21 2-1c10-10 21-14 35-15h2c15-1 25-2 35-6a74 74 0 0 0 45-45c3-9 4-20 5-34v-3c2-14 6-24 15-35l2-2c9-11 16-19 20-28a74 74 0 0 0 0-64c-4-9-11-17-20-28l-2-2c-9-10-14-22-15-35v-2c-1-15-2-26-5-35a74 74 0 0 0-45-45c-10-4-20-4-35-6h-2c-13 0-26-6-35-14l-2-2-28-21a74 74 0 0 0-64 0m-52 122a17 17 0 0 1 17-17h134a17 17 0 0 1 0 33h-40c5 9 8 19 10 29h30a17 17 0 1 1 0 33h-30c-2 14-8 26-16 37a68 68 0 0 1-49 25l68 71a17 17 0 0 1-25 23l-95-99a17 17 0 0 1 13-28h33c13 0 23-5 29-13l8-16h-70a17 17 0 0 1 0-33h70l-8-16c-6-7-16-13-29-13h-33a17 17 0 0 1-17-16"/><circle cx="371.6" cy="366.1" r="193.4" stroke="#B38E4B" stroke-width="97.4"/><path fill="#B38E4B" d="M272 716A365 365 0 0 0 598 75l-32 41a314 314 0 0 1-279 550zM471 16a365 365 0 0 0-325 642l31-42A314 314 0 0 1 456 66z"/><path stroke="#B38E4B" stroke-width="47.1" d="M568 180V79h100M176 552v101H75"/></svg>