<svg xmlns="http://www.w3.org/2000/svg" fill="none" viewBox="0 0 37 41"><path fill="#C4A05F" d="M36.805 5.542v9.095c0 10.124-5.472 19.391-14.281 24.186l-2.92 1.589a1.64 1.64 0 0 1-1.564 0l-2.92-1.589C6.31 34.028.838 24.761.838 14.636V5.542c0-.43.341-.783.77-.813 8.287-.564 13.978-2.76 16.857-4.166a.8.8 0 0 1 .713 0c2.88 1.407 8.572 3.602 16.858 4.166.43.03.77.382.77.813"/><path fill="#B38E4B" d="M36.805 5.542v9.095c0 10.124-5.472 19.391-14.281 24.186l-2.92 1.589c-.244.132-.513.2-.782.2V.478q.181 0 .356.084c2.88 1.407 8.572 3.602 16.858 4.166.43.03.77.382.77.813"/><path fill="#FAF8ED" d="M24.34 16.466H13.306c-.657 0-1.19.533-1.19 1.19v8.799c0 .656.533 1.19 1.19 1.19H24.34c.657 0 1.19-.534 1.19-1.19v-8.799c0-.657-.533-1.19-1.19-1.19m-4.453 6.147v.88a1.065 1.065 0 0 1-2.13 0v-.88a1.81 1.81 0 1 1 2.13 0m2.873-9.445v1.38a.852.852 0 0 1-1.704 0v-1.326c0-1.211-.94-2.243-2.15-2.29a2.24 2.24 0 0 0-2.322 2.235v2.445h-1.703v-2.38c0-2.147 1.691-3.95 3.838-4.003a3.93 3.93 0 0 1 2.887 1.153 3.92 3.92 0 0 1 1.154 2.785"/></svg>