<svg xmlns="http://www.w3.org/2000/svg" width="25" height="24" fill="none"><path fill="#fff" d="M24.527 7.213H.775L11.653.753a1.96 1.96 0 0 1 1.997 0zM4.386 18.483c.395.573.61 1.244.61 1.95v2.5c0 .54-.437.979-.977.979H1.752a.98.98 0 0 1-.977-.978v-4.451zM6.387 11.347v2.125a4.84 4.84 0 0 1-1.629 3.62H.775v-5.18c.266.11.555.17.858.17.596 0 1.133-.23 1.537-.611a2.27 2.27 0 0 0 3.217-.124M24.527 11.902v5.19h-3.983c-1-.89-1.63-2.184-1.63-3.62v-2.029c.41.395.964.638 1.58.638.614 0 1.17-.243 1.578-.638a2.26 2.26 0 0 0 2.46.46zM20.916 18.483h3.611v4.255c0 .648-.525 1.174-1.173 1.174h-2.071a.98.98 0 0 1-.978-.978v-2.5c0-.703.211-1.378.61-1.951M14.17 18.483c.38.697.57 1.464.57 2.285v2.166c0 .54-.439.978-.979.978h-2.22a.98.98 0 0 1-.978-.978v-2.166c0-.821.193-1.588.574-2.285h3.033M16.13 11.733v1.409c0 1.495-.583 2.9-1.58 3.946h-3.803a5.72 5.72 0 0 1-1.579-3.947v-1.473q.15-.103.28-.229c.408.395.964.638 1.579.638.614 0 1.17-.243 1.578-.638.409.395.964.638 1.579.638s1.17-.243 1.578-.638q.173.165.372.29zM8.755 8.603V9.81a.881.881 0 0 1-1.762 0V8.603zM5.598 8.603V9.81a.881.881 0 0 1-1.762 0V8.603zM2.491 8.603v1.23a.86.86 0 0 1-.858.858.86.86 0 0 1-.858-.858v-1.23zM11.908 8.603V9.81a.881.881 0 0 1-1.763 0V8.603zM15.065 8.603V9.81a.881.881 0 0 1-1.763 0V8.603zM18.217 8.603V9.81a.881.881 0 0 1-1.762 0V8.603zM21.375 8.603V9.81a.881.881 0 0 1-1.763 0V8.603zM24.527 8.603V9.81a.881.881 0 0 1-1.762 0V8.603z"/></svg>